<svg xmlns="http://www.w3.org/2000/svg" xmlns:xlink="http://www.w3.org/1999/xlink" viewBox="0 0 640 640"><defs><style>.cls-1{fill:#0c0e21;}.cls-2{fill:url(#linear-gradient);}.cls-3{fill:url(#linear-gradient-2);}</style><linearGradient id="linear-gradient" x1="245.49" y1="137.08" x2="245.49" y2="484.39" gradientUnits="userSpaceOnUse"><stop offset="0.01" stop-color="#09bafd"/><stop offset="0.48" stop-color="#2291fa"/><stop offset="1" stop-color="#4957f5"/></linearGradient><linearGradient id="linear-gradient-2" x1="275.83" y1="112.81" x2="431.47" y2="471.25" gradientUnits="userSpaceOnUse"><stop offset="0" stop-color="#09bafd"/><stop offset="0.24" stop-color="#30b2bf"/><stop offset="0.46" stop-color="#83d885"/><stop offset="0.91" stop-color="#c2f457"/></linearGradient></defs><g id="Option_A_Colors_1" data-name="Option A_Colors 1"><path class="cls-1" d="M205,599.08a4,4,0,0,1-1.19-2.93V536.72a4.15,4.15,0,0,1,1.19-3,3.92,3.92,0,0,1,2.93-1.24,4.22,4.22,0,0,1,4.21,4.21v23.9a30.53,30.53,0,0,1,7.51-6.13,18.93,18.93,0,0,1,9.52-2.29,15.82,15.82,0,0,1,8.75,2.38,15.46,15.46,0,0,1,5.67,6.5,20.67,20.67,0,0,1,2,9.07v26a3.91,3.91,0,0,1-1.23,2.93,4.17,4.17,0,0,1-3,1.19,4.06,4.06,0,0,1-4.12-4.12V571.06q0-11.17-10.07-11.17a14.57,14.57,0,0,0-8.2,2.38,29.73,29.73,0,0,0-6.82,6.41v27.47a3.91,3.91,0,0,1-1.23,2.93,4.17,4.17,0,0,1-3,1.19A4,4,0,0,1,205,599.08Z"/><path class="cls-1" d="M266.35,620.14a4,4,0,0,1-1.14-2.84,4.24,4.24,0,0,1,.27-1.47l5.95-15.29-17.21-41.93a4.75,4.75,0,0,1-.36-1.74,4.13,4.13,0,0,1,1.19-3,3.91,3.91,0,0,1,2.93-1.23,4,4,0,0,1,2.33.73,4.15,4.15,0,0,1,1.51,1.83l14.1,35,14.38-34.8a4,4,0,0,1,3.84-2.74,3.91,3.91,0,0,1,2.93,1.23,4.17,4.17,0,0,1,1.19,3,4.49,4.49,0,0,1-.27,1.56l-25,60.06c-.85,1.89-2.14,2.84-3.84,2.84A3.76,3.76,0,0,1,266.35,620.14Z"/><path class="cls-1" d="M309.07,620.09a4.11,4.11,0,0,1-1.19-3V556.78a4.06,4.06,0,0,1,4.12-4.12,4.11,4.11,0,0,1,3,1.19,3.92,3.92,0,0,1,1.24,2.93v2.38a21,21,0,0,1,15.66-7,21.45,21.45,0,0,1,10.75,2.88,21.81,21.81,0,0,1,8.24,8.42,28.16,28.16,0,0,1,0,25.92,21.81,21.81,0,0,1-8.24,8.42,21.46,21.46,0,0,1-10.75,2.89,21,21,0,0,1-15.66-7v23.34a4.07,4.07,0,0,1-4.21,4.22A3.88,3.88,0,0,1,309.07,620.09Zm32.5-31.45q4.13-4.3,4.12-12.18t-4.12-12.17a14.36,14.36,0,0,0-10.9-4.31,17.36,17.36,0,0,0-7.92,1.88,22.49,22.49,0,0,0-6.54,5v19.23a22.66,22.66,0,0,0,6.54,5,17.35,17.35,0,0,0,7.92,1.87A14.39,14.39,0,0,0,341.57,588.64Z"/><path class="cls-1" d="M366.84,599.08a4,4,0,0,1-1.19-2.93V536.72a4.15,4.15,0,0,1,1.19-3,3.92,3.92,0,0,1,2.93-1.24,4.22,4.22,0,0,1,4.21,4.21v23.9a30.71,30.71,0,0,1,7.51-6.13A18.93,18.93,0,0,1,391,552.2a15.82,15.82,0,0,1,8.75,2.38,15.55,15.55,0,0,1,5.68,6.5,20.8,20.8,0,0,1,2,9.07v26a3.91,3.91,0,0,1-1.23,2.93,4.17,4.17,0,0,1-3,1.19,4.06,4.06,0,0,1-4.12-4.12V571.06q0-11.17-10.07-11.17a14.59,14.59,0,0,0-8.2,2.38,29.73,29.73,0,0,0-6.82,6.41v27.47a3.91,3.91,0,0,1-1.23,2.93,4.17,4.17,0,0,1-3,1.19A4,4,0,0,1,366.84,599.08Z"/><path class="cls-1" d="M425.85,599.08a13,13,0,0,1-5.45-4.81,13.25,13.25,0,0,1-2-7.28,12.83,12.83,0,0,1,5.36-10.8q5.36-4,15.7-4h11.08v-.73q0-6-3-8.7t-9.29-2.66a30.92,30.92,0,0,0-6.18.55,53.41,53.41,0,0,0-6,1.65,4.7,4.7,0,0,1-1.19.18,3.24,3.24,0,0,1-2.38-1,3.4,3.4,0,0,1-1-2.48,3.52,3.52,0,0,1,2.39-3.47,40.17,40.17,0,0,1,15.84-3.3,20.65,20.65,0,0,1,10.66,2.56,16.08,16.08,0,0,1,6.41,6.64,19.36,19.36,0,0,1,2.06,8.84v25.91a3.88,3.88,0,0,1-1.24,2.93,4.13,4.13,0,0,1-3,1.19,4.06,4.06,0,0,1-4.12-4.12v-2.38a23,23,0,0,1-17.22,7A17,17,0,0,1,425.85,599.08Zm18.36-7.65a21.68,21.68,0,0,0,6.32-4.89v-7.7h-10q-13.83,0-13.83,7.24a6.8,6.8,0,0,0,2.25,5.31q2.23,2,7.46,2A16.46,16.46,0,0,0,444.21,591.43Z"/><path class="cls-2" d="M309.84,319.88v168.4a6,6,0,1,1-11.95,0V318.1C301.86,318.86,305.87,319.41,309.84,319.88Zm-25.49-5.47a68.83,68.83,0,0,1-10.21-4.82V488.28a6,6,0,0,0,12,0V315Zm-34-25.91V488.28a6,6,0,1,0,12,0V301.15A91,91,0,0,1,250.4,288.5Zm-12.59-94.59v2.2c0,5.73-.05,11.39.07,17V194.75A5.83,5.83,0,0,0,237.81,193.91Zm-11.9,18.76V488.28a6,6,0,0,0,12,0V268.82c-.2-.36-.39-.73-.58-1.1C228.3,250.08,226.3,231.32,225.91,212.67ZM240.18,34.4a12,12,0,0,0-11,16.73L210.37,76.21l-8-22.24a12,12,0,1,0-11.18,4.24l10.95,30.62c0,.11,0,.22,0,.32V488.28a6,6,0,1,0,11.95,0V91.14l24.58-32.83a11.84,11.84,0,0,0,1.47.09,12,12,0,0,0,0-24Z"/><path class="cls-3" d="M424.06,494.25a6,6,0,0,1-6-6V382.37c0-15.93,0-32.41-4.39-47.38-5-16.94-16.73-32.32-33.08-43.3-11-7.4-23.38-12.18-37.79-14.61-2.47-.41-5-.8-7.53-1.16-12.32-1.83-25.06-3.71-36.28-11-24.9-16.09-24.89-45.25-24.88-68.68V81.61a6,6,0,0,1,12,0V196.27c0,22.66,0,46.08,19.41,58.65,9,5.84,20,7.46,31.53,9.17,2.56.38,5.19.77,7.78,1.2,16.12,2.72,30,8.11,42.47,16.48C406,294.3,419.4,312,425.17,331.62c4.89,16.62,4.88,34,4.87,50.76v105.9A6,6,0,0,1,424.06,494.25Zm-17.76-6V401.84c0-2.58,0-5.31.05-8.15.16-16.06.35-36-4-50.83-5.91-20.13-15.16-36-41-48.09-9.16-4.27-23.87-6.19-36.85-7.89-4.27-.55-8.3-1.08-11.87-1.65C292.29,282,279.35,268,273.44,259.92c-11.09-15.11-11.09-42.87-11.09-65.17V72.66a6,6,0,0,0-12,0V194.75c0,25.3,0,54,13.4,72.24,7,9.54,22.38,26.12,46.89,30,3.74.6,7.86,1.14,12.21,1.71,12.12,1.58,25.86,3.37,33.34,6.86,22,10.27,29.36,22.67,34.64,40.63,3.84,13.09,3.66,32.08,3.52,47.34,0,2.89-.06,5.66-.06,8.27v86.44a6,6,0,0,0,12,0Zm44.28-156.66c-6.06-20.64-21.3-44.72-37-58.55-13.11-11.53-34.17-23.54-49-27.95-17.07-5.09-27.05-5.63-33.64-6-5.46-.3-7.95-.43-11.32-2.49-8.16-5-8.4-13.71-8.15-32.91,0-2.86.06-5.82.06-9V82L336,52.78a13.33,13.33,0,0,0,1.56.1,12,12,0,1,0-11.08-7.36L305.1,71,286.93,53.2l6.44-10.54h0a12,12,0,1,0-12-12,11.83,11.83,0,0,0,1.61,6l-4.85,7.94L263.42,30.14a6,6,0,1,0-8.37,8.53l44.51,43.66V194.75c0,3.07,0,6-.07,8.83-.24,19.26-.43,34.48,13.86,43.24,5.94,3.65,10.78,3.92,16.92,4.25,6.39.35,15.16.82,30.88,5.5,13.16,3.92,32.7,15.11,44.5,25.48,14,12.29,28.06,34.55,33.47,52.94,4.4,15,4.4,31.45,4.39,47.38V488.28a6,6,0,1,0,11.95,0V382.37C455.47,365.59,455.48,348.24,450.58,331.62Zm-86.77-8.19c-14-11.14-30.62-13-46.71-14.75-10.17-1.12-19.78-2.18-28.56-5.46-16.17-6.06-29.83-19.82-40.59-40.93-7.85-15.38-9.69-31.88-10.08-49.22-.12-5.57-.1-11.23-.07-17v-2.2c0-10,0-58.92,0-80.22a12,12,0,1,0-12-.07c0,17.23,0,73.29,0,81.1v1.33c0,5.51,0,11.06.06,16.62.39,18.65,2.39,37.41,11.38,55.05.19.37.38.74.58,1.1A124.57,124.57,0,0,0,250.4,288.5a91,91,0,0,0,12,12.65,74,74,0,0,0,11.79,8.44,68.83,68.83,0,0,0,10.21,4.82l1.75.62a85.51,85.51,0,0,0,11.79,3.07c4,.76,8,1.31,11.95,1.78,2,.24,4,.46,6,.68,15.06,1.66,29.28,3.22,40.57,12.21,9,7.2,14.83,20.56,15.17,34.89L369.8,488.19a6,6,0,0,0,5.89,6.07h.09a6,6,0,0,0,6-5.9l1.73-120.64a.81.81,0,0,0,0-.22C383.1,349.41,375.74,332.93,363.81,323.43Z"/></g></svg>